<?xml version="1.0" standalone="no"?>
<!DOCTYPE svg PUBLIC "-//W3C//DTD SVG 20010904//EN"
 "http://www.w3.org/TR/2001/REC-SVG-20010904/DTD/svg10.dtd">
<svg version="1.0" xmlns="http://www.w3.org/2000/svg"
 width="87.000000pt" height="95.000000pt" viewBox="0 0 87.000000 95.000000"
 preserveAspectRatio="xMidYMid meet">

<g transform="translate(0.000000,95.000000) scale(0.100000,-0.100000)"
fill="#000000" stroke="none">
<path d="M343 845 c-78 -21 -130 -51 -185 -106 -88 -88 -132 -224 -111 -344
31 -180 153 -304 333 -337 116 -22 252 23 340 112 155 154 156 415 2 569 -56
56 -107 85 -189 106 -70 18 -121 18 -190 0z m47 -270 l26 -79 65 -14 c79 -16
134 -13 134 8 0 10 -18 19 -50 27 -74 19 -91 49 -54 97 16 20 29 26 60 26 38
0 79 -26 79 -50 0 -15 -40 -12 -56 5 -18 17 -24 18 -43 6 -21 -14 -5 -41 24
-41 28 0 66 -16 77 -34 14 -21 8 -56 -13 -77 -19 -19 -29 -21 -88 -15 -36 3
-79 9 -95 12 -26 6 -27 5 -17 -15 11 -19 9 -21 -18 -21 -22 0 -30 6 -35 24 -6
23 -30 36 -73 36 -15 0 -24 -9 -32 -30 -7 -23 -16 -30 -35 -30 l-26 0 40 113
c22 61 42 118 45 125 3 8 16 12 32 10 24 -3 29 -12 53 -83z m-190 -297 c0 -7
-5 -6 -15 2 -20 16 -41 -1 -31 -25 4 -12 12 -14 28 -10 22 7 22 6 5 -11 -13
-15 -21 -16 -35 -8 -40 25 -13 96 29 74 10 -6 19 -16 19 -22z m80 -20 c-1 -38
-2 -41 -14 -25 -16 21 -26 22 -26 1 0 -8 -4 -12 -10 -9 -5 3 -10 22 -10 41 0
31 2 34 30 34 29 0 30 -2 30 -42z m73 35 c-27 -5 -31 -22 -5 -24 16 -1 16 -2
0 -6 -24 -6 -23 -23 2 -23 11 0 20 -5 20 -11 0 -6 -12 -9 -27 -7 -24 3 -28 8
-31 41 -3 36 -2 37 30 36 23 -1 26 -3 11 -6z m93 -29 c15 -36 11 -61 -6 -34
-8 12 -13 13 -30 2 -17 -10 -20 -10 -20 2 0 22 22 66 32 66 5 0 16 -16 24 -36z
m72 25 c-11 -6 -18 -22 -18 -40 0 -18 -4 -28 -10 -24 -5 3 -10 19 -10 35 0 15
-6 31 -12 33 -7 3 5 6 27 6 32 0 36 -2 23 -10z m52 -23 c0 -19 -4 -38 -10 -41
-6 -4 -10 10 -10 34 0 23 5 41 10 41 6 0 10 -15 10 -34z m88 2 c6 -47 -59 -62
-73 -17 -9 27 13 51 44 47 20 -2 27 -9 29 -30z m56 10 l16 -22 0 22 c0 12 5
22 10 22 11 0 14 -63 3 -74 -4 -4 -15 3 -25 16 -14 19 -18 20 -18 6 0 -9 -4
-20 -10 -23 -6 -4 -10 10 -10 34 0 46 11 52 34 19z"/>
<path d="M321 565 c-15 -53 -15 -52 14 -57 29 -6 31 7 11 62 l-13 35 -12 -40z"/>
<path d="M240 280 c0 -5 5 -10 10 -10 6 0 10 5 10 10 0 6 -4 10 -10 10 -5 0
-10 -4 -10 -10z"/>
<path d="M611 281 c-15 -10 -8 -41 9 -41 15 0 25 29 14 40 -5 5 -15 5 -23 1z"/>
</g>
</svg>
