<?xml version="1.0" standalone="no"?>
<!DOCTYPE svg PUBLIC "-//W3C//DTD SVG 20010904//EN"
 "http://www.w3.org/TR/2001/REC-SVG-20010904/DTD/svg10.dtd">
<svg version="1.0" xmlns="http://www.w3.org/2000/svg"
 width="633.000000pt" height="428.000000pt" viewBox="0 0 633.000000 428.000000"
 preserveAspectRatio="xMidYMid meet">

<g transform="translate(0.000000,428.000000) scale(0.100000,-0.100000)"
fill="#000000" stroke="none">
<path d="M0 2140 l0 -2140 3165 0 3165 0 0 2140 0 2140 -3165 0 -3165 0 0
-2140z m2645 1776 c73 -38 180 -137 231 -214 21 -31 46 -66 56 -78 10 -11 30
-54 45 -95 25 -66 28 -86 27 -194 -1 -103 -5 -131 -28 -194 -14 -41 -26 -76
-26 -78 0 -4 68 51 178 144 31 26 35 36 48 122 18 123 66 275 122 388 52 108
71 128 106 119 20 -5 34 -24 62 -83 l35 -76 25 69 c24 69 44 94 73 94 27 0 40
-14 71 -77 36 -72 143 -179 270 -269 75 -53 91 -71 142 -153 32 -51 78 -117
103 -148 47 -57 57 -101 32 -134 -15 -20 -144 -123 -215 -171 -136 -94 -269
-126 -384 -92 -15 4 -18 -1 -18 -29 0 -40 10 -50 65 -67 127 -40 264 -152 312
-256 52 -112 30 -274 -40 -298 -18 -7 -51 -6 -99 2 -111 19 -172 62 -244 175
l-44 67 -62 0 c-35 0 -69 -4 -76 -9 -7 -4 -26 -34 -42 -67 -16 -32 -38 -73
-49 -90 l-21 -31 49 -41 c120 -102 141 -280 55 -471 -14 -33 -23 -64 -19 -70
3 -6 23 -11 44 -11 20 0 65 -9 98 -21 153 -51 253 -172 253 -306 0 -33 -5 -45
-22 -54 -16 -9 -218 -12 -762 -12 -676 -1 -744 1 -773 16 -40 21 -226 224
-313 342 -131 178 -191 287 -251 460 -101 295 -66 519 116 723 129 145 203
279 231 422 34 173 -5 367 -105 516 -71 104 -68 110 76 158 199 65 289 85 488
110 57 7 120 -7 180 -38z m-753 -3186 c38 -107 75 -200 81 -207 13 -12 373
-73 432 -73 64 0 99 66 56 104 -12 11 -54 22 -111 31 -101 15 -131 30 -160 78
-67 108 35 234 186 231 69 -2 110 -20 147 -64 25 -30 43 -68 35 -76 -3 -2 -25
-7 -51 -10 -43 -6 -48 -4 -72 24 -33 39 -81 50 -123 28 -42 -22 -51 -48 -28
-79 10 -13 41 -22 99 -32 144 -23 190 -55 203 -141 5 -35 2 -53 -17 -91 -49
-96 -139 -111 -396 -65 -90 16 -163 26 -163 22 0 -4 7 -27 15 -51 9 -24 12
-46 7 -51 -5 -5 -33 -8 -63 -6 l-54 3 -19 65 c-10 36 -20 66 -21 68 -1 1 -51
11 -110 22 -86 16 -111 17 -117 7 -5 -6 -18 -45 -30 -85 -24 -80 -33 -86 -104
-80 -32 2 -38 6 -36 22 2 11 51 152 110 313 l105 294 65 -3 65 -3 69 -195z
m1221 144 c60 -20 130 -82 158 -141 27 -56 32 -159 10 -213 -24 -59 -78 -117
-134 -144 -77 -38 -132 -43 -214 -18 -78 24 -138 77 -172 152 -23 51 -27 138
-9 191 49 145 212 224 361 173z m608 -15 c160 -54 215 -290 98 -423 -58 -66
-119 -86 -264 -86 l-115 0 0 260 0 260 124 0 c67 0 138 -5 157 -11z m667 -31
l-3 -43 -117 -3 -118 -3 0 -54 0 -54 108 -3 107 -3 3 -42 3 -42 -108 -3 -108
-3 -3 -62 -3 -63 131 0 130 0 0 -50 0 -50 -185 0 -185 0 0 260 0 260 176 0
175 0 -3 -42z"/>
<path d="M2420 3863 c-158 -26 -423 -93 -443 -113 -5 -4 9 -43 31 -87 72 -142
87 -208 87 -373 0 -133 -2 -152 -28 -230 -44 -131 -109 -241 -215 -364 -57
-67 -107 -153 -127 -218 -18 -62 -21 -221 -5 -292 12 -54 68 -206 81 -220 5
-6 9 -17 9 -25 0 -19 68 -134 134 -226 75 -104 234 -295 246 -295 4 0 10 75
13 168 9 240 37 401 108 622 78 244 173 411 384 675 171 214 207 294 207 450
0 156 -57 285 -182 410 -103 104 -186 137 -300 118z"/>
<path d="M3366 3693 c-53 -104 -106 -282 -125 -423 -7 -52 -16 -80 -28 -90
-10 -8 -72 -60 -137 -115 -64 -55 -127 -105 -140 -112 -34 -19 -255 -250 -318
-333 -145 -192 -228 -406 -273 -701 -17 -116 -38 -460 -33 -558 l3 -63 690 -1
690 -1 -3 24 c-5 47 -56 114 -112 148 -71 42 -113 53 -210 54 -64 1 -83 5 -97
20 -16 18 -14 23 24 96 84 158 103 283 58 380 -20 42 -35 59 -84 90 -33 20
-63 44 -66 53 -7 20 99 255 129 287 31 32 133 48 207 33 62 -13 95 -41 124
-104 27 -59 94 -121 150 -140 69 -24 94 -22 105 9 30 78 -14 200 -98 275 -48
43 -181 111 -240 124 -42 9 -64 55 -66 134 0 48 3 56 33 83 31 28 37 29 80 22
66 -11 112 -7 172 15 48 19 273 149 328 190 l24 18 -45 56 c-25 31 -65 89 -89
130 -36 61 -57 85 -128 138 -111 84 -227 193 -262 247 -15 24 -29 39 -32 35
-14 -26 -17 -74 -7 -140 9 -57 9 -77 0 -89 -34 -40 -79 3 -148 143 -25 51 -49
93 -53 93 -5 0 -15 -12 -23 -27z"/>
<path d="M1716 688 c-19 -62 -33 -114 -31 -117 7 -7 148 -32 153 -27 6 7 -70
256 -79 256 -4 0 -24 -50 -43 -112z"/>
<path d="M2958 766 c-103 -32 -142 -162 -74 -251 32 -42 113 -70 172 -59 79
15 145 110 129 187 -23 106 -117 158 -227 123z"/>
<path d="M3550 610 l0 -173 58 6 c112 10 154 52 160 157 6 115 -42 171 -153
178 l-65 4 0 -172z"/>
</g>
</svg>
