<?xml version="1.0" standalone="no"?>
<!DOCTYPE svg PUBLIC "-//W3C//DTD SVG 20010904//EN"
 "http://www.w3.org/TR/2001/REC-SVG-20010904/DTD/svg10.dtd">
<svg version="1.0" xmlns="http://www.w3.org/2000/svg"
 width="768.000000pt" height="746.000000pt" viewBox="0 0 768.000000 746.000000"
 preserveAspectRatio="xMidYMid meet">

<g transform="translate(0.000000,746.000000) scale(0.100000,-0.100000)"
fill="#000000" stroke="none">
<path d="M4578 6458 c-32 -67 -38 -84 -48 -143 -21 -115 -30 -211 -29 -301 1
-51 -2 -97 -5 -103 -19 -30 -26 13 -26 153 0 84 -2 155 -6 158 -7 8 -79 -21
-144 -59 -74 -43 -188 -162 -235 -246 -42 -76 -94 -218 -95 -258 0 -14 -7 -46
-15 -71 -16 -45 -26 -53 -105 -86 -15 -7 -168 -12 -383 -15 l-359 -4 -22 36
c-12 20 -31 52 -42 71 -118 213 -365 431 -604 533 -19 9 -46 18 -60 22 -14 3
-34 10 -45 15 -31 13 -198 40 -250 40 -61 0 -198 -26 -250 -48 -113 -47 -200
-142 -266 -290 -17 -37 -34 -74 -39 -83 -5 -9 -12 -34 -16 -55 -3 -22 -10 -43
-14 -49 -9 -11 -23 -84 -48 -250 -12 -82 -17 -180 -17 -385 0 -379 21 -500 87
-500 47 0 68 59 134 380 18 91 41 195 50 234 7 29 8 28 25 -25 10 -29 18 -62
18 -72 1 -9 5 -25 10 -35 5 -9 15 -37 22 -61 17 -56 45 -91 74 -91 30 0 69 41
145 154 55 82 120 145 120 117 0 -5 -28 -52 -62 -103 -131 -198 -223 -367
-268 -493 -12 -33 -25 -69 -30 -80 -10 -22 -26 -89 -41 -175 -13 -70 -5 -354
11 -400 39 -112 77 -201 104 -245 129 -215 348 -406 651 -571 l90 -49 1010 4
c1117 3 1045 -1 1045 67 0 46 -50 101 -120 132 -49 22 -75 26 -245 33 -104 5
-222 11 -262 15 -80 7 -78 0 -33 99 27 61 79 222 99 308 16 67 14 262 -3 318
-45 147 -150 247 -307 291 -56 15 -245 15 -324 -1 -33 -6 -98 -26 -145 -43
-92 -33 -122 -38 -130 -23 -5 10 94 65 118 65 7 0 20 4 30 10 9 5 40 14 67 20
199 45 392 33 500 -31 17 -10 45 -26 63 -35 l33 -17 57 52 c31 28 76 66 99 84
23 17 42 35 43 40 0 8 -226 344 -241 357 -3 3 -16 23 -29 45 -13 22 -26 42
-29 45 -4 3 -12 17 -20 33 -12 22 -12 30 -2 40 10 9 15 8 26 -8 8 -11 19 -25
25 -32 5 -7 10 -15 10 -18 0 -8 44 -69 53 -73 4 -2 7 -8 7 -13 0 -5 18 -35 41
-66 22 -32 61 -89 87 -126 26 -38 65 -93 87 -122 22 -30 63 -85 90 -123 28
-39 69 -82 93 -97 39 -25 53 -28 125 -27 79 0 168 18 234 48 17 8 33 14 36 14
6 0 102 43 214 96 142 67 215 64 325 -16 94 -69 98 -70 98 -26 0 114 -76 226
-188 278 -88 40 -136 49 -283 57 -89 4 -131 10 -144 21 -10 8 -31 44 -47 80
-16 36 -33 72 -37 80 -5 9 -16 52 -26 96 l-17 80 23 49 c27 55 67 82 132 91
23 3 125 0 227 -6 191 -12 231 -13 237 -6 4 4 -44 95 -58 111 -13 13 -11 43 4
48 6 3 49 2 95 -1 114 -7 226 27 264 81 19 26 19 32 8 70 -12 37 -131 278
-220 442 -38 71 -89 142 -122 170 -89 77 -178 124 -312 164 -91 28 -121 27
-98 -2 16 -21 34 -109 23 -120 -12 -12 -31 -1 -31 18 0 8 -6 29 -14 47 -8 18
-21 49 -30 70 -9 20 -16 39 -16 42 0 3 -14 29 -32 58 -75 126 -147 164 -180
96z m102 -60 c32 -43 102 -185 114 -228 10 -35 29 -74 41 -82 5 -4 25 -8 42
-8 45 0 66 33 57 88 -6 39 -5 41 17 36 35 -8 55 -16 142 -58 97 -47 185 -127
236 -215 64 -109 241 -463 241 -481 0 -9 -8 -23 -17 -31 -49 -39 -69 -44 -198
-47 -100 -3 -134 -8 -147 -19 -22 -20 -24 -81 -2 -111 8 -12 13 -25 11 -30 -3
-4 -61 -3 -129 1 -271 19 -335 10 -392 -53 -69 -77 -71 -177 -6 -337 49 -118
61 -137 109 -167 34 -22 52 -25 162 -29 161 -5 238 -25 317 -84 39 -29 82 -94
82 -123 0 -20 -2 -20 -42 7 -65 43 -93 53 -157 53 -55 0 -85 -8 -171 -47 -66
-30 -205 -94 -220 -102 -54 -28 -172 -55 -245 -56 -107 0 -129 15 -230 155
-75 105 -125 172 -143 195 -4 6 -56 83 -116 173 -60 89 -117 167 -127 172 -26
15 -50 12 -71 -7 -30 -27 -23 -73 22 -137 22 -31 40 -59 40 -63 0 -3 12 -22
28 -42 15 -20 32 -44 37 -53 10 -18 37 -56 118 -171 56 -79 59 -69 -45 -159
l-57 -49 -40 26 c-22 14 -44 25 -48 25 -5 0 -20 6 -35 14 -15 8 -75 22 -133
32 -87 14 -117 15 -173 6 -37 -6 -89 -14 -117 -18 -27 -4 -54 -10 -60 -14 -5
-4 -27 -11 -49 -14 -21 -4 -46 -11 -55 -16 -9 -4 -36 -16 -61 -26 -25 -10 -53
-25 -63 -33 -26 -21 -18 -69 14 -93 l26 -20 104 36 c150 51 222 66 330 66 205
0 352 -86 410 -242 30 -81 31 -255 0 -373 -26 -103 -44 -162 -54 -171 -4 -4
-7 -14 -7 -21 0 -8 -20 -57 -45 -110 -25 -52 -45 -99 -45 -104 0 -5 42 -10 93
-10 147 -2 439 -16 477 -24 83 -16 154 -68 148 -109 l-3 -21 -949 -8 c-521 -4
-969 -4 -993 0 l-45 8 -49 130 c-26 71 -51 143 -55 159 -4 17 -10 37 -15 46
-7 14 -17 47 -54 185 -9 33 -20 74 -26 90 -5 17 -12 80 -15 140 -7 146 12 288
55 415 51 147 97 224 275 459 132 174 232 316 269 381 54 95 117 232 117 254
0 8 4 17 9 20 5 3 12 21 15 39 l6 34 98 8 c53 4 223 10 377 14 263 6 283 8
322 29 57 30 72 56 99 170 12 53 25 106 29 117 62 162 155 282 274 354 37 23
70 41 74 41 4 0 7 -59 7 -132 0 -148 8 -168 65 -168 52 0 60 20 57 129 -2 52
1 122 7 156 6 33 15 87 20 120 28 180 54 212 111 133z m-2445 -258 c81 -14
149 -31 160 -41 5 -5 15 -9 23 -9 23 0 147 -66 237 -126 146 -97 320 -296 410
-469 41 -78 43 -71 -64 -296 -49 -104 -142 -251 -228 -359 -255 -322 -320
-432 -391 -660 -18 -55 -37 -227 -36 -310 2 -93 39 -306 64 -365 4 -11 24 -71
44 -132 20 -62 47 -143 61 -179 30 -79 30 -85 8 -77 -25 9 -158 90 -218 132
-285 200 -464 438 -517 686 -16 77 -21 273 -8 335 57 270 138 448 352 767 74
111 82 147 32 159 -55 14 -111 -35 -207 -181 -25 -39 -54 -78 -65 -88 -18 -16
-19 -16 -29 5 -13 28 -35 94 -58 173 -42 150 -63 188 -88 166 -8 -6 -17 -24
-20 -39 -3 -15 -13 -58 -22 -97 -8 -38 -22 -101 -30 -140 -31 -149 -59 -271
-77 -339 -14 -51 -38 -74 -38 -37 0 11 -4 22 -9 25 -14 9 -23 173 -22 414 1
253 18 437 50 552 6 19 18 62 27 95 45 157 154 325 247 379 46 27 116 52 162
59 54 7 199 6 250 -3z"/>
<path d="M5055 5893 c-29 -7 -56 -34 -71 -70 -12 -26 -11 -37 0 -65 22 -52 52
-73 101 -73 35 0 50 6 74 29 26 25 31 37 31 76 0 38 -5 51 -28 73 -28 27 -71
39 -107 30z m88 -51 c13 -11 17 -27 15 -55 -6 -83 -99 -102 -141 -30 -17 30
-17 34 -2 63 26 51 85 61 128 22z"/>
<path d="M5050 5830 c-22 -22 -26 -60 -8 -78 7 -7 26 -12 43 -12 17 0 36 5 43
12 20 20 14 65 -10 82 -30 21 -44 20 -68 -4z"/>
<path d="M2343 2653 c-20 -20 -53 -89 -112 -236 -68 -171 -82 -215 -77 -243
13 -69 96 -88 147 -33 16 17 29 37 29 45 0 11 18 14 80 14 78 0 80 -1 95 -29
35 -68 106 -82 150 -29 21 25 25 38 21 63 -6 32 -133 355 -163 413 -33 66
-119 83 -170 35z m98 -63 c5 -8 29 -69 54 -135 26 -66 53 -134 61 -152 8 -17
14 -38 14 -46 0 -9 4 -18 9 -21 12 -8 21 -46 11 -46 -5 0 -14 16 -20 35 -6 19
-16 35 -21 35 -5 0 -9 9 -9 20 0 17 -25 90 -50 145 -4 11 -21 53 -37 93 -15
40 -32 73 -38 73 -5 1 -20 -25 -33 -58 -13 -32 -30 -72 -38 -90 -7 -17 -14
-37 -14 -45 0 -8 -4 -18 -9 -23 -12 -14 -36 -87 -33 -102 2 -7 -1 -13 -6 -13
-6 0 -17 -17 -26 -37 -15 -34 -16 -35 -11 -8 5 25 75 212 105 280 4 11 16 42
27 68 14 36 23 47 37 45 10 -2 23 -10 27 -18z m3 -261 c-3 -5 -19 -9 -36 -9
-27 0 -30 3 -24 25 3 13 11 37 17 52 l11 28 19 -43 c10 -24 16 -48 13 -53z"/>
<path d="M2840 2659 c-107 -48 -147 -135 -107 -230 22 -54 81 -90 195 -119 36
-9 43 -15 40 -33 -5 -36 -51 -34 -100 4 -49 40 -97 43 -134 8 -81 -76 44 -199
202 -199 134 0 224 75 224 187 0 88 -44 132 -171 173 -70 23 -96 41 -84 60 13
20 64 10 98 -20 43 -37 84 -39 121 -5 56 52 14 136 -90 175 -69 25 -136 25
-194 -1z m128 -56 c-15 -2 -42 -2 -60 0 -18 2 -6 4 27 4 33 0 48 -2 33 -4z
m-129 -32 c-30 -31 -36 -61 -19 -105 12 -33 54 -58 140 -86 78 -25 108 -52
116 -102 5 -27 1 -40 -21 -66 -40 -48 -83 -63 -147 -52 -69 11 -79 16 -101 45
-23 32 -9 32 22 0 29 -31 58 -39 122 -33 40 4 57 12 85 39 39 38 41 52 15 94
-19 32 -65 56 -139 75 -85 22 -142 103 -112 161 17 31 42 58 57 58 6 1 -2 -12
-18 -28z m226 -12 c11 -17 -1 -21 -15 -4 -8 9 -8 15 -2 15 6 0 14 -5 17 -11z"/>
<path d="M3391 2659 c-61 -24 -120 -78 -153 -141 -31 -58 -33 -204 -4 -258 38
-71 77 -109 141 -140 215 -103 453 57 432 290 -10 110 -67 194 -163 241 -69
33 -179 37 -253 8z m205 -65 c76 -36 147 -164 129 -231 -7 -24 -9 -20 -16 34
-9 70 -25 107 -66 144 -85 79 -195 79 -273 0 -43 -42 -60 -88 -60 -157 0 -82
27 -135 89 -176 14 -10 21 -18 14 -18 -20 0 -70 49 -92 91 -22 42 -30 134 -16
180 14 45 68 108 109 129 50 25 134 26 182 4z m-25 -91 c80 -47 78 -195 -3
-239 -53 -30 -127 -12 -158 38 -23 38 -26 120 -6 156 31 57 111 78 167 45z
m136 -195 c-3 -8 -6 -5 -6 6 -1 11 2 17 5 13 3 -3 4 -12 1 -19z m-97 -118
c-14 -11 -34 -20 -45 -20 -11 0 -31 -3 -45 -5 -22 -5 -22 -4 -5 4 11 5 32 10
48 10 15 1 27 5 27 10 0 8 14 15 40 20 3 0 -6 -8 -20 -19z m-137 -17 c-7 -2
-19 -2 -25 0 -7 3 -2 5 12 5 14 0 19 -2 13 -5z"/>
<path d="M3943 2665 c-17 -7 -36 -22 -42 -34 -7 -12 -11 -103 -11 -246 l0
-226 26 -26 c25 -25 27 -25 152 -21 143 6 194 21 250 78 59 59 77 105 77 200
0 76 -3 91 -30 140 -55 100 -162 150 -315 150 -41 -1 -89 -7 -107 -15z m288
-90 c49 -32 73 -70 89 -144 22 -104 -14 -182 -104 -226 -48 -23 -62 -25 -152
-23 l-99 3 -3 195 c-1 107 0 200 2 207 4 10 35 13 116 13 101 0 114 -2 151
-25z"/>
<path d="M3980 2389 l0 -191 103 4 c91 3 107 7 145 32 59 37 86 97 80 177 -3
46 -11 67 -34 96 -48 60 -84 73 -196 73 l-98 0 0 -191z m205 90 c32 -28 35
-36 35 -84 0 -45 -5 -58 -29 -84 -24 -26 -36 -31 -75 -31 l-46 0 0 115 0 115
40 0 c30 0 48 -7 75 -31z"/>
<path d="M4533 2666 c-17 -8 -36 -23 -42 -35 -7 -12 -11 -100 -11 -236 0 -225
6 -264 45 -279 9 -3 88 -6 176 -6 157 0 160 0 185 25 35 35 30 89 -9 119 -23
17 -46 22 -123 24 -68 3 -94 7 -94 17 0 9 22 14 74 17 90 4 116 22 116 78 0
58 -34 83 -121 88 -108 6 -83 26 40 32 94 5 105 7 122 29 29 35 22 88 -14 115
-25 19 -44 21 -170 23 -105 2 -150 -1 -174 -11z m172 -76 l-130 -5 -3 -92 -3
-93 106 0 c68 0 104 -4 100 -10 -3 -6 -50 -10 -106 -10 l-99 0 0 -90 c0 -86 1
-90 23 -91 12 -1 68 -1 125 -1 56 0 105 -4 108 -10 6 -9 -228 -10 -253 -1 -10
4 -13 52 -13 202 0 109 3 201 7 204 3 4 65 6 137 5 l131 -2 -130 -6z"/>
</g>
</svg>
